<svg xmlns="http://www.w3.org/2000/svg" xmlns:lucid="lucid" width="131" height="134"><g lucid:page-tab-id="0_0" stroke="#000" stroke-opacity="0" stroke-width="2"><path d="M3.84 9.92a6 6 0 0 1 6-6h21.32a6 6 0 0 1 6 6V123.9a6 6 0 0 1-6 6H9.84a6 6 0 0 1-6-6zM61.38 62.16a7 7 0 0 1 9.04 1.22l55.4 62.05a2.7 2.7 0 0 1-2 4.47H82.17a12 12 0 0 1-9.6-4.8l-31.8-42.46a5.6 5.6 0 0 1 1.43-8.06z" fill="#6f7681"/><path d="M117.2 33.64c0 13.95-11.66 25.26-26.03 25.26-14.38 0-26.03-11.3-26.03-25.26S76.8 8.37 91.17 8.37c14.37 0 26.03 11.3 26.03 25.27z" fill="#d916a8"/></g></svg>