<svg xmlns="http://www.w3.org/2000/svg" xmlns:lucid="lucid" width="251" height="233"><g lucid:page-tab-id="0_0" stroke="#000" stroke-opacity="0" stroke-width="2"><path d="M72.84 55.92a6 6 0 0 1 6-6h21.32a6 6 0 0 1 6 6V169.9a6 6 0 0 1-6 6H78.84a6 6 0 0 1-6-6zM130.38 108.16a7 7 0 0 1 9.04 1.22l55.4 62.05a2.7 2.7 0 0 1-2 4.47h-41.65a12 12 0 0 1-9.6-4.8l-31.8-42.46a5.6 5.6 0 0 1 1.43-8.06z" fill="#6f7681"/><path d="M186.2 79.64c0 13.95-11.66 25.26-26.03 25.26-14.38 0-26.03-11.3-26.03-25.26s11.65-25.27 26.03-25.27c14.37 0 26.03 11.3 26.03 25.27z" fill="#d916a8"/></g></svg>